<svg width="327" height="326" viewBox="0 0 327 326" fill="none" xmlns="http://www.w3.org/2000/svg">
<path d="M278.431 49.0531C247.779 18.5735 207.029 1.79285 163.681 1.79285C120.334 1.79285 79.5839 18.5762 48.9351 49.0531C18.2809 79.5272 1.40405 120.048 1.40405 163.146C1.40405 206.246 18.2836 246.764 48.9351 277.238C79.5839 307.718 120.337 324.498 163.681 324.498C207.026 324.498 247.779 307.715 278.428 277.238C309.082 246.764 325.959 206.243 325.959 163.146C325.959 120.045 309.08 79.5272 278.431 49.0531Z" stroke="#CCCCCC" stroke-width="2"/>
<path d="M302.364 145.918C300.831 142.563 299.382 139.391 298.789 136.417C298.163 133.276 298.271 129.702 298.389 125.918C298.571 120.129 298.758 114.149 296.38 108.476C293.958 102.687 289.507 98.5591 285.204 94.5707C282.457 92.0225 279.861 89.6177 278.121 87.042C276.353 84.4269 275.083 81.1055 273.737 77.5904C271.659 72.1588 269.513 66.5413 265.082 62.1561C260.654 57.7714 254.983 55.6468 249.497 53.586C245.944 52.2564 242.593 50.996 239.952 49.2454C237.35 47.5197 234.919 44.9519 232.345 42.2318C228.317 37.9688 224.148 33.5618 218.302 31.163C212.57 28.8085 206.527 28.9941 200.683 29.1713C196.862 29.2877 193.25 29.3985 190.078 28.7781C187.073 28.188 183.87 26.7559 180.483 25.238C175.335 22.9334 169.499 20.3185 163.082 20.3185C156.664 20.3185 150.828 22.9306 145.681 25.238C142.293 26.7559 139.09 28.188 136.086 28.7752C132.914 29.3985 129.304 29.2877 125.483 29.1713C119.636 28.9913 113.597 28.8085 107.865 31.1602C102.021 33.559 97.8521 37.966 93.821 42.229C91.2474 44.9464 88.8193 47.5197 86.2204 49.2399C83.5765 50.9933 80.2222 52.2508 76.6749 53.5804C71.1863 55.6385 65.5132 57.7659 61.0873 62.1507C56.659 66.5353 54.5105 72.1504 52.4319 77.585C51.0864 81.1001 49.8163 84.4186 48.0455 87.0337C46.3054 89.6094 43.7093 92.0165 40.9622 94.5653C36.6596 98.5537 32.2059 102.681 29.7833 108.47C27.4054 114.146 27.5929 120.129 27.7747 125.916C27.8922 129.7 28.0013 133.276 27.3746 136.417C26.7788 139.391 25.3325 142.563 23.7994 145.918C21.4747 151.014 18.8338 156.792 18.8338 163.147C18.8338 169.501 21.4719 175.279 23.8022 180.376C25.3353 183.731 26.7816 186.902 27.3746 189.878C28.0041 193.019 27.8922 196.595 27.7747 200.376C27.5929 206.165 27.4082 212.145 29.7833 217.821C32.2059 223.607 36.6568 227.734 40.9593 231.726C43.7065 234.272 46.3026 236.679 48.0426 239.252C49.8107 241.87 51.0807 245.188 52.4264 248.703C54.5049 254.138 56.6534 259.756 61.0819 264.137C65.5072 268.523 71.1809 270.65 76.6665 272.708C80.2198 274.04 83.5711 275.298 86.212 277.049C88.8133 278.774 91.2444 281.342 93.8156 284.062C97.8467 288.325 102.015 292.732 107.859 295.131C113.594 297.485 119.636 297.303 125.478 297.123C129.302 297.006 132.911 296.896 136.086 297.518C139.09 298.106 142.291 299.541 145.681 301.056C150.828 303.36 156.664 305.973 163.082 305.973C169.499 305.973 175.335 303.363 180.483 301.056C183.87 299.538 187.073 298.106 190.078 297.518C193.25 296.896 196.862 297.006 200.68 297.123C206.527 297.303 212.567 297.485 218.296 295.134C224.143 292.735 228.311 288.328 232.34 284.067C234.913 281.347 237.345 278.777 239.943 277.054C242.587 275.304 245.939 274.046 249.488 272.714C254.977 270.655 260.651 268.528 265.076 264.143C269.505 259.761 271.653 254.144 273.732 248.712C275.077 245.194 276.348 241.876 278.115 239.26C279.858 236.684 282.452 234.277 285.199 231.732C289.504 227.74 293.955 223.613 296.378 217.826C298.755 212.148 298.571 206.165 298.392 200.381C298.271 196.595 298.16 193.021 298.789 189.878C299.382 186.905 300.831 183.734 302.361 180.376C304.689 175.279 307.327 169.501 307.327 163.147C307.327 156.792 304.692 151.014 302.364 145.918Z" stroke="#CCCCCC" stroke-width="2"/>
<path d="M129.828 117.914C142.079 117.914 152.044 108.005 152.044 95.825C152.044 83.647 142.079 73.7382 129.828 73.7382C117.578 73.7382 107.612 83.647 107.612 95.825C107.612 108.005 117.578 117.914 129.828 117.914ZM247.961 135.096C247.961 122.916 237.995 113.007 225.744 113.007C213.494 113.007 203.528 122.916 203.528 135.096C203.528 147.274 213.494 157.186 225.744 157.186C237.995 157.186 247.961 147.274 247.961 135.096ZM191.891 213.985C179.644 213.985 169.675 223.894 169.675 236.075C169.675 248.256 179.644 258.164 191.891 258.164C204.141 258.164 214.107 248.256 214.107 236.075C214.107 223.894 204.141 213.985 191.891 213.985ZM129.476 185.586C129.476 173.405 119.51 163.496 107.259 163.496C95.0093 163.496 85.046 173.405 85.046 185.586C85.046 197.766 95.0117 207.675 107.259 207.675C119.51 207.675 129.476 197.766 129.476 185.586ZM185.898 174.366C185.892 169.996 184.145 165.808 181.037 162.718C177.929 159.629 173.717 157.892 169.322 157.888C164.929 157.893 160.716 159.63 157.609 162.719C154.503 165.808 152.755 169.997 152.75 174.366C152.755 178.735 154.503 182.923 157.609 186.012C160.716 189.101 164.929 190.838 169.322 190.844C173.717 190.84 177.929 189.102 181.037 186.013C184.145 182.924 185.892 178.735 185.898 174.366ZM191.891 101.086C196.285 101.082 200.499 99.3437 203.606 96.2547C206.713 93.1657 208.462 88.9765 208.466 84.6074C208.462 80.2377 206.714 76.0485 203.607 72.9583C200.499 69.8687 196.286 68.1309 191.891 68.1267C187.497 68.1315 183.284 69.8699 180.177 72.9595C177.07 76.0491 175.323 80.2383 175.319 84.6074C175.323 88.9765 177.071 93.1645 180.178 96.2535C183.285 99.3431 187.497 101.08 191.891 101.086ZM242.67 174.716C238.276 174.721 234.064 176.459 230.957 179.548C227.85 182.638 226.102 186.826 226.097 191.195C226.101 195.564 227.849 199.753 230.956 202.842C234.062 205.932 238.276 207.671 242.67 207.675C247.064 207.671 251.278 205.933 254.386 202.844C257.493 199.753 259.241 195.564 259.245 191.195C259.24 186.826 257.492 182.636 254.384 179.547C251.277 176.458 247.064 174.721 242.67 174.716ZM129.828 225.205C125.434 225.211 121.222 226.948 118.115 230.038C115.008 233.127 113.261 237.315 113.256 241.684C113.26 246.053 115.007 250.242 118.115 253.332C121.221 256.421 125.434 258.16 129.828 258.164C134.223 258.16 138.437 256.422 141.544 253.333C144.652 250.243 146.399 246.053 146.404 241.684C146.398 237.315 144.651 233.125 141.543 230.036C138.435 226.947 134.223 225.21 129.828 225.205ZM84.6932 145.966C89.0873 145.961 93.3005 144.223 96.4073 141.133C99.514 138.043 101.262 133.855 101.266 129.485C101.261 125.116 99.5134 120.928 96.4061 117.839C93.2993 114.75 89.0873 113.012 84.6932 113.007C80.2991 113.011 76.0859 114.749 72.9786 117.838C69.8713 120.927 68.1229 125.116 68.1181 129.485C68.1223 133.855 69.8701 138.044 72.9774 141.134C76.0853 144.224 80.2985 145.961 84.6932 145.966Z" stroke="#CCCCCC" stroke-width="2"/>
<path d="M143.142 130.653C141.899 130.086 140.482 130.02 139.191 130.47C137.9 130.919 136.837 131.849 136.224 133.062C135.612 134.275 135.499 135.677 135.91 136.971C136.321 138.264 137.224 139.349 138.427 139.995L149.673 145.569C150.919 146.149 152.343 146.223 153.642 145.776C154.942 145.329 156.014 144.396 156.629 143.177C157.244 141.957 157.354 140.547 156.936 139.249C156.517 137.949 155.603 136.864 154.388 136.224L143.142 130.65V130.653ZM174.516 129.401C175.864 129.401 177.214 128.892 178.241 127.873L183.864 122.299C184.372 121.818 184.778 121.242 185.057 120.603C185.337 119.964 185.486 119.276 185.493 118.58C185.501 117.884 185.369 117.193 185.104 116.548C184.839 115.903 184.446 115.318 183.95 114.825C183.453 114.333 182.862 113.944 182.212 113.681C181.561 113.418 180.864 113.287 180.162 113.295C179.46 113.303 178.766 113.45 178.122 113.727C177.477 114.005 176.896 114.407 176.411 114.911L170.787 120.485C170.052 121.216 169.551 122.147 169.349 123.16C169.147 124.173 169.251 125.222 169.65 126.176C170.049 127.13 170.724 127.946 171.59 128.519C172.456 129.094 173.473 129.4 174.516 129.401ZM155.756 204.076L150.133 198.502C149.646 198.007 149.064 197.612 148.422 197.342C147.779 197.071 147.089 196.929 146.392 196.925C145.694 196.921 145.002 197.054 144.357 197.317C143.711 197.58 143.125 197.967 142.631 198.457C142.138 198.946 141.748 199.527 141.483 200.167C141.217 200.807 141.083 201.493 141.088 202.185C141.092 202.877 141.235 203.561 141.509 204.197C141.782 204.834 142.18 205.41 142.68 205.893L148.303 211.468C149.33 212.486 150.682 212.995 152.028 212.995C153.07 212.994 154.088 212.687 154.955 212.113C155.821 211.539 156.496 210.723 156.894 209.768C157.293 208.814 157.397 207.764 157.194 206.751C156.991 205.738 156.49 204.807 155.753 204.076H155.756ZM206.351 176.212C205.866 175.709 205.284 175.307 204.64 175.029C203.995 174.752 203.302 174.605 202.599 174.597C201.897 174.589 201.2 174.72 200.55 174.983C199.899 175.246 199.309 175.635 198.812 176.127C198.315 176.62 197.923 177.205 197.658 177.85C197.392 178.495 197.26 179.186 197.268 179.882C197.276 180.578 197.424 181.266 197.704 181.905C197.984 182.543 198.39 183.12 198.897 183.601L204.521 189.175C205.548 190.194 206.9 190.703 208.246 190.703C209.288 190.702 210.306 190.395 211.172 189.821C212.038 189.246 212.713 188.431 213.112 187.476C213.511 186.522 213.615 185.472 213.412 184.459C213.209 183.446 212.708 182.515 211.972 181.784L206.348 176.212H206.351ZM267.727 147.368L256.483 152.942C255.847 153.239 255.276 153.658 254.806 154.176C254.336 154.694 253.974 155.301 253.744 155.959C253.513 156.618 253.418 157.315 253.464 158.012C253.509 158.707 253.695 159.387 254.009 160.01C254.324 160.634 254.761 161.188 255.295 161.642C255.829 162.096 256.45 162.438 257.12 162.65C257.79 162.863 258.495 162.94 259.196 162.877C259.896 162.815 260.577 162.614 261.198 162.287L272.442 156.713C273.078 156.417 273.648 155.997 274.119 155.479C274.59 154.961 274.951 154.354 275.181 153.696C275.412 153.037 275.507 152.339 275.462 151.644C275.416 150.948 275.23 150.268 274.916 149.645C274.601 149.021 274.164 148.467 273.63 148.013C273.095 147.559 272.475 147.216 271.806 147.004C271.136 146.792 270.429 146.715 269.729 146.777C269.029 146.84 268.348 147.041 267.727 147.368ZM71.431 165.066C70.4423 164.087 69.102 163.536 67.704 163.536C66.3066 163.536 64.9657 164.087 63.9776 165.066L58.3543 170.641C57.8409 171.121 57.4299 171.697 57.1456 172.337C56.8613 172.977 56.7095 173.668 56.6991 174.367C56.6888 175.066 56.8201 175.76 57.0854 176.408C57.3506 177.057 57.7444 177.645 58.2433 178.139C58.7422 178.634 59.3359 179.024 59.9898 179.287C60.6437 179.549 61.3439 179.679 62.0495 179.669C62.7551 179.659 63.4511 179.507 64.0966 179.225C64.7421 178.943 65.3239 178.536 65.8077 178.026L71.431 172.453C72.4178 171.473 72.9726 170.144 72.9726 168.759C72.9726 167.374 72.4178 166.046 71.431 165.066ZM153.923 66.5688C154.95 67.5871 156.302 68.0993 157.651 68.0993C158.694 68.0981 159.712 67.7915 160.578 67.2172C161.444 66.6429 162.119 65.8272 162.517 64.8728C162.916 63.9184 163.02 62.8684 162.817 61.8549C162.614 60.842 162.113 59.9109 161.377 59.1803L155.753 53.606C155.268 53.1027 154.686 52.7006 154.042 52.4234C153.397 52.1462 152.704 51.9995 152.001 51.9918C151.299 51.9841 150.602 52.1157 149.952 52.3787C149.301 52.6417 148.71 53.0309 148.214 53.5235C147.718 54.016 147.326 54.6019 147.061 55.2469C146.796 55.8917 146.663 56.5826 146.672 57.2789C146.68 57.9751 146.829 58.6627 147.109 59.3013C147.389 59.9396 147.795 60.5163 148.303 60.9973L153.926 66.5718L153.923 66.5688ZM157.648 252.702C156.251 252.702 154.911 253.253 153.923 254.233C152.934 255.213 152.38 256.542 152.38 257.928V263.502C152.411 264.867 152.98 266.166 153.965 267.121C154.95 268.075 156.273 268.61 157.65 268.61C159.028 268.61 160.35 268.075 161.335 267.121C162.32 266.166 162.889 264.867 162.921 263.502V257.928C162.921 257.241 162.784 256.562 162.519 255.928C162.254 255.294 161.866 254.717 161.377 254.232C160.887 253.747 160.305 253.362 159.666 253.1C159.026 252.837 158.341 252.702 157.648 252.702ZM232.628 220.796L227.005 226.371C226.492 226.851 226.081 227.427 225.796 228.067C225.512 228.707 225.36 229.398 225.35 230.097C225.34 230.797 225.471 231.49 225.736 232.139C226.001 232.787 226.395 233.375 226.894 233.869C227.393 234.364 227.987 234.754 228.641 235.017C229.294 235.28 229.995 235.409 230.7 235.399C231.406 235.389 232.102 235.238 232.747 234.956C233.393 234.674 233.975 234.266 234.458 233.757L240.082 228.183C240.595 227.703 241.006 227.126 241.29 226.486C241.575 225.846 241.727 225.156 241.737 224.457C241.747 223.757 241.615 223.063 241.35 222.415C241.085 221.767 240.692 221.178 240.193 220.684C239.693 220.189 239.1 219.8 238.446 219.537C237.792 219.274 237.092 219.144 236.387 219.155C235.681 219.165 234.985 219.315 234.339 219.598C233.694 219.88 233.112 220.288 232.628 220.796ZM88.2946 220.796C87.8096 220.293 87.2278 219.891 86.5835 219.614C85.9392 219.336 85.2456 219.189 84.543 219.181C83.841 219.173 83.1438 219.305 82.4935 219.567C81.8432 219.83 81.2523 220.219 80.7553 220.711C80.2588 221.204 79.8664 221.79 79.6013 222.434C79.3363 223.079 79.204 223.77 79.2119 224.466C79.2197 225.162 79.3681 225.85 79.6482 226.489C79.9277 227.127 80.3334 227.704 80.8412 228.185L86.4644 233.757C87.4916 234.775 88.8433 235.287 90.1896 235.287C91.2318 235.286 92.2499 234.979 93.116 234.405C93.9821 233.831 94.6571 233.015 95.0561 232.061C95.4546 231.106 95.5592 230.056 95.356 229.043C95.1529 228.03 94.6516 227.099 93.9154 226.368L88.2946 220.794V220.796ZM227.005 88.8612C228.032 89.8795 229.384 90.3916 230.733 90.3916C231.775 90.3904 232.794 90.0833 233.66 89.509C234.526 88.9347 235.201 88.1189 235.599 87.1646C235.998 86.2102 236.102 85.1602 235.899 84.1473C235.696 83.1337 235.195 82.2033 234.458 81.4724L228.835 75.898C228.351 75.3894 227.77 74.9818 227.124 74.6998C226.478 74.4177 225.782 74.2677 225.076 74.257C224.371 74.2468 223.671 74.3771 223.017 74.64C222.363 74.903 221.77 75.2932 221.271 75.788C220.772 76.2828 220.379 76.8715 220.114 77.5193C219.849 78.1677 219.718 78.8621 219.728 79.5613C219.739 80.2605 219.891 80.9507 220.176 81.5907C220.46 82.2302 220.871 82.8074 221.385 83.2867L227.008 88.8612H227.005ZM247.597 112.683C248.994 112.679 250.332 112.126 251.319 111.148C252.307 110.168 252.864 108.842 252.869 107.457C252.864 106.073 252.307 104.747 251.319 103.768C250.332 102.789 248.994 102.237 247.597 102.231C246.201 102.237 244.863 102.789 243.875 103.768C242.887 104.747 242.331 106.073 242.325 107.457C242.331 108.842 242.887 110.168 243.875 111.148C244.863 112.126 246.201 112.679 247.597 112.683ZM182.034 142.777C181.046 143.757 180.49 145.085 180.487 146.47C180.492 147.855 181.049 149.181 182.037 150.16C183.024 151.139 184.362 151.691 185.759 151.696C187.156 151.691 188.494 151.139 189.481 150.16C190.469 149.181 191.026 147.855 191.031 146.47C191.026 145.085 190.469 143.759 189.481 142.78C188.494 141.801 187.156 141.249 185.759 141.244C184.375 141.244 183.012 141.802 182.034 142.777ZM114.575 148.348C113.586 149.328 113.03 150.656 113.029 152.042C113.03 153.427 113.586 154.756 114.574 155.735C115.563 156.715 116.902 157.266 118.3 157.268C119.696 157.262 121.034 156.709 122.021 155.731C123.008 154.752 123.564 153.426 123.569 152.042C123.564 150.657 123.007 149.331 122.019 148.352C121.032 147.373 119.694 146.821 118.297 146.815C116.908 146.815 115.551 147.376 114.575 148.348ZM90.1896 95.9631C91.5858 95.9583 92.9237 95.4061 93.9112 94.4278C94.8987 93.4496 95.4558 92.1235 95.4618 90.74C95.46 89.3542 94.9041 88.0257 93.916 87.0462C92.9279 86.0662 91.5876 85.5152 90.1896 85.514C88.7922 85.5152 87.4519 86.0662 86.4639 87.0462C85.4758 88.0257 84.9198 89.3542 84.918 90.74C84.9234 92.1241 85.48 93.4508 86.4675 94.4296C87.4555 95.4085 88.7934 95.9607 90.1896 95.9655V95.9631ZM176.411 198.507C175.425 199.487 174.87 200.814 174.867 202.198C174.872 203.582 175.429 204.908 176.416 205.887C177.404 206.866 178.742 207.418 180.138 207.423C181.536 207.421 182.875 206.87 183.863 205.89C184.85 204.911 185.406 203.582 185.407 202.198C185.403 200.813 184.845 199.486 183.858 198.508C182.87 197.529 181.533 196.976 180.136 196.972C178.752 196.972 177.389 197.532 176.413 198.507H176.411ZM180.136 263.848C178.739 263.853 177.401 264.405 176.414 265.384C175.426 266.363 174.869 267.689 174.864 269.074C174.865 270.459 175.421 271.788 176.409 272.767C177.398 273.748 178.738 274.298 180.136 274.3C181.533 274.298 182.873 273.748 183.862 272.767C184.85 271.788 185.406 270.459 185.407 269.074C185.403 267.689 184.845 266.363 183.858 265.384C182.87 264.405 181.533 263.853 180.136 263.848ZM73.326 191.4C71.9292 191.405 70.5913 191.957 69.6038 192.936C68.6163 193.915 68.0592 195.241 68.0544 196.626C68.0592 198.01 68.6163 199.336 69.6038 200.316C70.5913 201.295 71.9292 201.847 73.326 201.852C74.7222 201.847 76.0607 201.295 77.0482 200.316C78.0356 199.336 78.5928 198.01 78.5976 196.626C78.5928 195.241 78.0356 193.915 77.0482 192.936C76.0607 191.957 74.7222 191.405 73.326 191.4Z" fill="#CCCCCC"/>
</svg>
