<svg width="34" height="34" viewBox="0 0 34 34" fill="none" xmlns="http://www.w3.org/2000/svg">
<g id="Iconly/Light/Buy">
<g id="Buy">
<path id="Stroke 1" d="M3.896 4.60403L6.84266 5.11403L8.20691 21.3675C8.316 22.6949 9.42525 23.7135 10.7569 23.7092H26.2113C27.4821 23.712 28.5602 22.777 28.7401 21.519L30.0845 12.2285C30.2347 11.1901 29.5136 10.2268 28.4766 10.0766C28.3859 10.0639 7.31583 10.0568 7.31583 10.0568" stroke="#130F26" stroke-width="1.5" stroke-linecap="round" stroke-linejoin="round"/>
<path id="Stroke 3" d="M20.0105 15.2927H23.9389" stroke="#130F26" stroke-width="1.5" stroke-linecap="round" stroke-linejoin="round"/>
<path id="Stroke 5" fill-rule="evenodd" clip-rule="evenodd" d="M10.1354 28.6202C10.5618 28.6202 10.9061 28.9659 10.9061 29.3909C10.9061 29.8173 10.5618 30.163 10.1354 30.163C9.709 30.163 9.36475 29.8173 9.36475 29.3909C9.36475 28.9659 9.709 28.6202 10.1354 28.6202Z" fill="#130F26" stroke="#130F26" stroke-width="1.5" stroke-linecap="round" stroke-linejoin="round"/>
<path id="Stroke 7" fill-rule="evenodd" clip-rule="evenodd" d="M26.1159 28.6202C26.5423 28.6202 26.888 28.9659 26.888 29.3909C26.888 29.8173 26.5423 30.163 26.1159 30.163C25.6895 30.163 25.3452 29.8173 25.3452 29.3909C25.3452 28.9659 25.6895 28.6202 26.1159 28.6202Z" fill="#130F26" stroke="#130F26" stroke-width="1.5" stroke-linecap="round" stroke-linejoin="round"/>
</g>
</g>
</svg>
