<svg width="245" height="78" viewBox="0 0 245 78" fill="none" xmlns="http://www.w3.org/2000/svg">
<path d="M46.2109 69.9307H47.8984C47.8105 70.7393 47.5791 71.4629 47.2041 72.1016C46.8291 72.7402 46.2988 73.2471 45.6133 73.6221C44.9277 73.9912 44.0723 74.1758 43.0469 74.1758C42.2969 74.1758 41.6143 74.0352 40.999 73.7539C40.3896 73.4727 39.8652 73.0742 39.4258 72.5586C38.9863 72.0371 38.6465 71.4131 38.4062 70.6865C38.1719 69.9541 38.0547 69.1396 38.0547 68.2432V66.9688C38.0547 66.0723 38.1719 65.2607 38.4062 64.5342C38.6465 63.8018 38.9893 63.1748 39.4346 62.6533C39.8857 62.1318 40.4277 61.7305 41.0605 61.4492C41.6934 61.168 42.4053 61.0273 43.1963 61.0273C44.1631 61.0273 44.9805 61.209 45.6484 61.5723C46.3164 61.9355 46.835 62.4395 47.2041 63.084C47.5791 63.7227 47.8105 64.4639 47.8984 65.3076H46.2109C46.1289 64.71 45.9766 64.1973 45.7539 63.7695C45.5312 63.3359 45.2148 63.002 44.8047 62.7676C44.3945 62.5332 43.8584 62.416 43.1963 62.416C42.6279 62.416 42.127 62.5244 41.6934 62.7412C41.2656 62.958 40.9053 63.2656 40.6123 63.6641C40.3252 64.0625 40.1084 64.54 39.9619 65.0967C39.8154 65.6533 39.7422 66.2715 39.7422 66.9512V68.2432C39.7422 68.8701 39.8066 69.459 39.9355 70.0098C40.0703 70.5605 40.2725 71.0439 40.542 71.46C40.8115 71.876 41.1543 72.2041 41.5703 72.4443C41.9863 72.6787 42.4785 72.7959 43.0469 72.7959C43.7676 72.7959 44.3418 72.6816 44.7695 72.4531C45.1973 72.2246 45.5195 71.8965 45.7363 71.4688C45.959 71.041 46.1172 70.5283 46.2109 69.9307ZM49.5332 69.3506V69.1484C49.5332 68.4629 49.6328 67.8271 49.832 67.2412C50.0312 66.6494 50.3184 66.1367 50.6934 65.7031C51.0684 65.2637 51.5225 64.9238 52.0557 64.6836C52.5889 64.4375 53.1865 64.3145 53.8486 64.3145C54.5166 64.3145 55.1172 64.4375 55.6504 64.6836C56.1895 64.9238 56.6465 65.2637 57.0215 65.7031C57.4023 66.1367 57.6924 66.6494 57.8916 67.2412C58.0908 67.8271 58.1904 68.4629 58.1904 69.1484V69.3506C58.1904 70.0361 58.0908 70.6719 57.8916 71.2578C57.6924 71.8438 57.4023 72.3564 57.0215 72.7959C56.6465 73.2295 56.1924 73.5693 55.6592 73.8154C55.1318 74.0557 54.5342 74.1758 53.8662 74.1758C53.1982 74.1758 52.5977 74.0557 52.0645 73.8154C51.5312 73.5693 51.0742 73.2295 50.6934 72.7959C50.3184 72.3564 50.0312 71.8438 49.832 71.2578C49.6328 70.6719 49.5332 70.0361 49.5332 69.3506ZM51.1592 69.1484V69.3506C51.1592 69.8252 51.2148 70.2734 51.3262 70.6953C51.4375 71.1113 51.6045 71.4805 51.8271 71.8027C52.0557 72.125 52.3398 72.3799 52.6797 72.5674C53.0195 72.749 53.415 72.8398 53.8662 72.8398C54.3115 72.8398 54.7012 72.749 55.0352 72.5674C55.375 72.3799 55.6562 72.125 55.8789 71.8027C56.1016 71.4805 56.2686 71.1113 56.3799 70.6953C56.4971 70.2734 56.5557 69.8252 56.5557 69.3506V69.1484C56.5557 68.6797 56.4971 68.2373 56.3799 67.8213C56.2686 67.3994 56.0986 67.0273 55.8701 66.7051C55.6475 66.377 55.3662 66.1191 55.0264 65.9316C54.6924 65.7441 54.2998 65.6504 53.8486 65.6504C53.4033 65.6504 53.0107 65.7441 52.6709 65.9316C52.3369 66.1191 52.0557 66.377 51.8271 66.7051C51.6045 67.0273 51.4375 67.3994 51.3262 67.8213C51.2148 68.2373 51.1592 68.6797 51.1592 69.1484ZM66.3291 60.3506H67.665C67.665 60.9248 67.5771 61.3818 67.4014 61.7217C67.2256 62.0557 66.9854 62.3135 66.6807 62.4951C66.3818 62.6768 66.042 62.8145 65.6611 62.9082C65.2861 63.002 64.8965 63.0928 64.4922 63.1807C63.9883 63.2861 63.5195 63.4531 63.0859 63.6816C62.6582 63.9043 62.2891 64.2207 61.9785 64.6309C61.6738 65.041 61.4482 65.5742 61.3018 66.2305C61.1611 66.8867 61.123 67.6982 61.1875 68.665V69.4736H59.8516V68.665C59.8516 67.5811 59.9541 66.6348 60.1592 65.8262C60.3701 65.0176 60.666 64.335 61.0469 63.7783C61.4277 63.2217 61.8789 62.7793 62.4004 62.4512C62.9277 62.123 63.5078 61.8975 64.1406 61.7744C64.5977 61.6865 64.9902 61.5928 65.3184 61.4932C65.6465 61.3877 65.8955 61.2471 66.0654 61.0713C66.2412 60.8955 66.3291 60.6553 66.3291 60.3506ZM64.4043 65.0352C65.0254 65.0352 65.5791 65.1436 66.0654 65.3604C66.5518 65.5771 66.9648 65.8789 67.3047 66.2656C67.6445 66.6523 67.9023 67.1094 68.0781 67.6367C68.2598 68.1582 68.3506 68.7266 68.3506 69.3418V69.5352C68.3506 70.1973 68.2539 70.8125 68.0605 71.3809C67.873 71.9434 67.5947 72.4355 67.2256 72.8574C66.8623 73.2734 66.417 73.5986 65.8896 73.833C65.3682 74.0674 64.7734 74.1846 64.1055 74.1846C63.4375 74.1846 62.8398 74.0674 62.3125 73.833C61.791 73.5986 61.3457 73.2734 60.9766 72.8574C60.6074 72.4355 60.3262 71.9434 60.1328 71.3809C59.9453 70.8125 59.8516 70.1973 59.8516 69.5352V69.3418C59.8516 69.1953 59.8779 69.0518 59.9307 68.9111C59.9834 68.7705 60.0479 68.627 60.124 68.4805C60.2061 68.334 60.2793 68.1787 60.3438 68.0146C60.5605 67.4873 60.8564 66.998 61.2314 66.5469C61.6123 66.0957 62.0664 65.7324 62.5938 65.457C63.127 65.1758 63.7305 65.0352 64.4043 65.0352ZM64.0879 66.3623C63.4902 66.3623 62.998 66.5 62.6113 66.7754C62.2305 67.0508 61.9463 67.417 61.7588 67.874C61.5713 68.3252 61.4775 68.8145 61.4775 69.3418V69.5352C61.4775 69.9805 61.5303 70.4023 61.6357 70.8008C61.7412 71.1992 61.8994 71.5537 62.1104 71.8643C62.3271 72.1689 62.5996 72.4092 62.9277 72.585C63.2617 72.7607 63.6543 72.8486 64.1055 72.8486C64.5566 72.8486 64.9463 72.7607 65.2744 72.585C65.6025 72.4092 65.8721 72.1689 66.083 71.8643C66.2939 71.5537 66.4521 71.1992 66.5576 70.8008C66.6631 70.4023 66.7158 69.9805 66.7158 69.5352V69.3418C66.7158 68.9434 66.6631 68.5654 66.5576 68.208C66.4521 67.8506 66.291 67.5342 66.0742 67.2588C65.8633 66.9834 65.5908 66.7666 65.2568 66.6084C64.9287 66.4443 64.5391 66.3623 64.0879 66.3623ZM74.1426 74.1758C73.4805 74.1758 72.8799 74.0645 72.3408 73.8418C71.8076 73.6133 71.3477 73.2939 70.9609 72.8838C70.5801 72.4736 70.2871 71.9873 70.082 71.4248C69.877 70.8623 69.7744 70.2471 69.7744 69.5791V69.21C69.7744 68.4365 69.8887 67.748 70.1172 67.1445C70.3457 66.5352 70.6562 66.0195 71.0488 65.5977C71.4414 65.1758 71.8867 64.8564 72.3848 64.6396C72.8828 64.4229 73.3984 64.3145 73.9316 64.3145C74.6113 64.3145 75.1973 64.4316 75.6895 64.666C76.1875 64.9004 76.5947 65.2285 76.9111 65.6504C77.2275 66.0664 77.4619 66.5586 77.6143 67.127C77.7666 67.6895 77.8428 68.3047 77.8428 68.9727V69.7021H70.7412V68.375H76.2168V68.252C76.1934 67.8301 76.1055 67.4199 75.9531 67.0215C75.8066 66.623 75.5723 66.2949 75.25 66.0371C74.9277 65.7793 74.4883 65.6504 73.9316 65.6504C73.5625 65.6504 73.2227 65.7295 72.9121 65.8877C72.6016 66.04 72.335 66.2686 72.1123 66.5732C71.8896 66.8779 71.7168 67.25 71.5938 67.6895C71.4707 68.1289 71.4092 68.6357 71.4092 69.21V69.5791C71.4092 70.0303 71.4707 70.4551 71.5938 70.8535C71.7227 71.2461 71.9072 71.5918 72.1475 71.8906C72.3936 72.1895 72.6895 72.4238 73.0352 72.5938C73.3867 72.7637 73.7852 72.8486 74.2305 72.8486C74.8047 72.8486 75.291 72.7314 75.6895 72.4971C76.0879 72.2627 76.4365 71.9492 76.7354 71.5566L77.7197 72.3389C77.5146 72.6494 77.2539 72.9453 76.9375 73.2266C76.6211 73.5078 76.2314 73.7363 75.7686 73.9121C75.3115 74.0879 74.7695 74.1758 74.1426 74.1758ZM81.3672 66.3184V77.6562H79.7324V64.4902H81.2266L81.3672 66.3184ZM87.7744 69.166V69.3506C87.7744 70.042 87.6924 70.6836 87.5283 71.2754C87.3643 71.8613 87.124 72.3711 86.8076 72.8047C86.4971 73.2383 86.1133 73.5752 85.6562 73.8154C85.1992 74.0557 84.6748 74.1758 84.083 74.1758C83.4795 74.1758 82.9463 74.0762 82.4834 73.877C82.0205 73.6777 81.6279 73.3877 81.3057 73.0068C80.9834 72.626 80.7256 72.1689 80.5322 71.6357C80.3447 71.1025 80.2158 70.502 80.1455 69.834V68.8496C80.2158 68.1465 80.3477 67.5166 80.541 66.96C80.7344 66.4033 80.9893 65.9287 81.3057 65.5361C81.6279 65.1377 82.0176 64.8359 82.4746 64.6309C82.9316 64.4199 83.459 64.3145 84.0566 64.3145C84.6543 64.3145 85.1846 64.4316 85.6475 64.666C86.1104 64.8945 86.5 65.2227 86.8164 65.6504C87.1328 66.0781 87.3701 66.5908 87.5283 67.1885C87.6924 67.7803 87.7744 68.4395 87.7744 69.166ZM86.1396 69.3506V69.166C86.1396 68.6914 86.0898 68.2461 85.9902 67.8301C85.8906 67.4082 85.7354 67.0391 85.5244 66.7227C85.3193 66.4004 85.0557 66.1484 84.7334 65.9668C84.4111 65.7793 84.0273 65.6855 83.582 65.6855C83.1719 65.6855 82.8145 65.7559 82.5098 65.8965C82.2109 66.0371 81.9561 66.2275 81.7451 66.4678C81.5342 66.7021 81.3613 66.9717 81.2266 67.2764C81.0977 67.5752 81.001 67.8857 80.9365 68.208V70.4844C81.0537 70.8945 81.2178 71.2812 81.4287 71.6445C81.6396 72.002 81.9209 72.292 82.2725 72.5146C82.624 72.7314 83.0664 72.8398 83.5996 72.8398C84.0391 72.8398 84.417 72.749 84.7334 72.5674C85.0557 72.3799 85.3193 72.125 85.5244 71.8027C85.7354 71.4805 85.8906 71.1113 85.9902 70.6953C86.0898 70.2734 86.1396 69.8252 86.1396 69.3506ZM91.6064 71.4248L95.9922 64.4902H97.627V74H95.9922V67.0654L91.6064 74H89.9893V64.4902H91.6064V71.4248ZM108.508 72.8398C108.895 72.8398 109.252 72.7607 109.58 72.6025C109.908 72.4443 110.178 72.2275 110.389 71.9521C110.6 71.6709 110.72 71.3516 110.749 70.9941H112.296C112.267 71.5566 112.076 72.0811 111.725 72.5674C111.379 73.0479 110.925 73.4375 110.362 73.7363C109.8 74.0293 109.182 74.1758 108.508 74.1758C107.793 74.1758 107.169 74.0498 106.636 73.7979C106.108 73.5459 105.669 73.2002 105.317 72.7607C104.972 72.3213 104.711 71.8174 104.535 71.249C104.365 70.6748 104.28 70.0684 104.28 69.4297V69.0605C104.28 68.4219 104.365 67.8184 104.535 67.25C104.711 66.6758 104.972 66.1689 105.317 65.7295C105.669 65.29 106.108 64.9443 106.636 64.6924C107.169 64.4404 107.793 64.3145 108.508 64.3145C109.252 64.3145 109.902 64.4668 110.459 64.7715C111.016 65.0703 111.452 65.4805 111.769 66.002C112.091 66.5176 112.267 67.1035 112.296 67.7598H110.749C110.72 67.3672 110.608 67.0127 110.415 66.6963C110.228 66.3799 109.97 66.1279 109.642 65.9404C109.319 65.7471 108.941 65.6504 108.508 65.6504C108.01 65.6504 107.591 65.75 107.251 65.9492C106.917 66.1426 106.65 66.4062 106.451 66.7402C106.258 67.0684 106.117 67.4346 106.029 67.8389C105.947 68.2373 105.906 68.6445 105.906 69.0605V69.4297C105.906 69.8457 105.947 70.2559 106.029 70.6602C106.111 71.0645 106.249 71.4307 106.442 71.7588C106.642 72.0869 106.908 72.3506 107.242 72.5498C107.582 72.7432 108.004 72.8398 108.508 72.8398ZM118.589 69.8164H115.469L115.451 68.5156H118C118.504 68.5156 118.923 68.4658 119.257 68.3662C119.597 68.2666 119.852 68.1172 120.021 67.918C120.191 67.7188 120.276 67.4727 120.276 67.1797C120.276 66.9512 120.227 66.752 120.127 66.582C120.033 66.4062 119.89 66.2627 119.696 66.1514C119.503 66.0342 119.263 65.9492 118.976 65.8965C118.694 65.8379 118.363 65.8086 117.982 65.8086H115.899V74H114.273V64.4902H117.982C118.586 64.4902 119.128 64.543 119.608 64.6484C120.095 64.7539 120.508 64.915 120.848 65.1318C121.193 65.3428 121.457 65.6123 121.639 65.9404C121.82 66.2686 121.911 66.6553 121.911 67.1006C121.911 67.3877 121.853 67.6602 121.735 67.918C121.618 68.1758 121.445 68.4043 121.217 68.6035C120.988 68.8027 120.707 68.9668 120.373 69.0957C120.039 69.2188 119.655 69.2979 119.222 69.333L118.589 69.8164ZM118.589 74H114.88L115.688 72.6816H118.589C119.04 72.6816 119.415 72.626 119.714 72.5146C120.013 72.3975 120.235 72.2334 120.382 72.0225C120.534 71.8057 120.61 71.5479 120.61 71.249C120.61 70.9502 120.534 70.6953 120.382 70.4844C120.235 70.2676 120.013 70.1035 119.714 69.9922C119.415 69.875 119.04 69.8164 118.589 69.8164H116.119L116.137 68.5156H119.222L119.811 69.0078C120.332 69.0488 120.774 69.1777 121.138 69.3945C121.501 69.6113 121.776 69.8867 121.964 70.2207C122.151 70.5488 122.245 70.9062 122.245 71.293C122.245 71.7383 122.16 72.1309 121.99 72.4707C121.826 72.8105 121.586 73.0947 121.27 73.3232C120.953 73.5459 120.569 73.7158 120.118 73.833C119.667 73.9443 119.157 74 118.589 74ZM123.994 69.3506V69.1484C123.994 68.4629 124.094 67.8271 124.293 67.2412C124.492 66.6494 124.779 66.1367 125.154 65.7031C125.529 65.2637 125.983 64.9238 126.517 64.6836C127.05 64.4375 127.647 64.3145 128.31 64.3145C128.978 64.3145 129.578 64.4375 130.111 64.6836C130.65 64.9238 131.107 65.2637 131.482 65.7031C131.863 66.1367 132.153 66.6494 132.353 67.2412C132.552 67.8271 132.651 68.4629 132.651 69.1484V69.3506C132.651 70.0361 132.552 70.6719 132.353 71.2578C132.153 71.8438 131.863 72.3564 131.482 72.7959C131.107 73.2295 130.653 73.5693 130.12 73.8154C129.593 74.0557 128.995 74.1758 128.327 74.1758C127.659 74.1758 127.059 74.0557 126.525 73.8154C125.992 73.5693 125.535 73.2295 125.154 72.7959C124.779 72.3564 124.492 71.8438 124.293 71.2578C124.094 70.6719 123.994 70.0361 123.994 69.3506ZM125.62 69.1484V69.3506C125.62 69.8252 125.676 70.2734 125.787 70.6953C125.898 71.1113 126.065 71.4805 126.288 71.8027C126.517 72.125 126.801 72.3799 127.141 72.5674C127.48 72.749 127.876 72.8398 128.327 72.8398C128.772 72.8398 129.162 72.749 129.496 72.5674C129.836 72.3799 130.117 72.125 130.34 71.8027C130.562 71.4805 130.729 71.1113 130.841 70.6953C130.958 70.2734 131.017 69.8252 131.017 69.3506V69.1484C131.017 68.6797 130.958 68.2373 130.841 67.8213C130.729 67.3994 130.56 67.0273 130.331 66.7051C130.108 66.377 129.827 66.1191 129.487 65.9316C129.153 65.7441 128.761 65.6504 128.31 65.6504C127.864 65.6504 127.472 65.7441 127.132 65.9316C126.798 66.1191 126.517 66.377 126.288 66.7051C126.065 67.0273 125.898 67.3994 125.787 67.8213C125.676 68.2373 125.62 68.6797 125.62 69.1484ZM140.104 68.5244V69.8516H135.051V68.5244H140.104ZM136.466 64.4902V74H134.84V64.4902H136.466ZM138.716 69.3506V69.1484C138.716 68.4629 138.815 67.8271 139.015 67.2412C139.214 66.6494 139.501 66.1367 139.876 65.7031C140.257 65.2637 140.711 64.9238 141.238 64.6836C141.771 64.4375 142.369 64.3145 143.031 64.3145C143.705 64.3145 144.309 64.4375 144.842 64.6836C145.375 64.9238 145.829 65.2637 146.204 65.7031C146.585 66.1367 146.875 66.6494 147.074 67.2412C147.273 67.8271 147.373 68.4629 147.373 69.1484V69.3506C147.373 70.0361 147.273 70.6719 147.074 71.2578C146.875 71.8438 146.588 72.3564 146.213 72.7959C145.838 73.2295 145.384 73.5693 144.851 73.8154C144.317 74.0557 143.717 74.1758 143.049 74.1758C142.381 74.1758 141.78 74.0557 141.247 73.8154C140.714 73.5693 140.257 73.2295 139.876 72.7959C139.501 72.3564 139.214 71.8438 139.015 71.2578C138.815 70.6719 138.716 70.0361 138.716 69.3506ZM140.351 69.1484V69.3506C140.351 69.8252 140.406 70.2734 140.518 70.6953C140.629 71.1113 140.796 71.4805 141.019 71.8027C141.247 72.125 141.528 72.3799 141.862 72.5674C142.202 72.749 142.598 72.8398 143.049 72.8398C143.5 72.8398 143.893 72.749 144.227 72.5674C144.566 72.3799 144.848 72.125 145.07 71.8027C145.293 71.4805 145.46 71.1113 145.571 70.6953C145.688 70.2734 145.747 69.8252 145.747 69.3506V69.1484C145.747 68.6797 145.688 68.2373 145.571 67.8213C145.46 67.3994 145.29 67.0273 145.062 66.7051C144.839 66.377 144.558 66.1191 144.218 65.9316C143.878 65.7441 143.482 65.6504 143.031 65.6504C142.586 65.6504 142.196 65.7441 141.862 65.9316C141.528 66.1191 141.247 66.377 141.019 66.7051C140.796 67.0273 140.629 67.3994 140.518 67.8213C140.406 68.2373 140.351 68.6797 140.351 69.1484ZM160.188 64.4902V65.835H155.38V64.4902H160.188ZM155.617 64.4902V74H153.991V64.4902H155.617ZM161.629 64.4902V74H159.994V64.4902H161.629ZM165.997 71.4248L170.383 64.4902H172.018V74H170.383V67.0654L165.997 74H164.38V64.4902H165.997V71.4248ZM174.769 74V64.4902H176.395V72.6641H180.771V64.4902H182.406V74H174.769ZM183.531 72.6641L183.373 76.8213H181.923V74H180.684V72.6641H183.531ZM185.438 74V64.4902H187.064V72.6641H191.441V64.4902H193.076V74H185.438ZM194.201 72.6641L194.043 76.8213H192.593V74H191.354V72.6641H194.201ZM198.64 73.0156L201.285 64.4902H203.025L199.211 75.4678C199.123 75.7021 199.006 75.9541 198.859 76.2236C198.719 76.499 198.537 76.7598 198.314 77.0059C198.092 77.252 197.822 77.4512 197.506 77.6035C197.195 77.7617 196.823 77.8408 196.39 77.8408C196.261 77.8408 196.097 77.8232 195.897 77.7881C195.698 77.7529 195.558 77.7236 195.476 77.7002L195.467 76.3818C195.514 76.3877 195.587 76.3936 195.687 76.3994C195.792 76.4111 195.865 76.417 195.906 76.417C196.275 76.417 196.589 76.3672 196.847 76.2676C197.104 76.1738 197.321 76.0127 197.497 75.7842C197.679 75.5615 197.834 75.2539 197.963 74.8613L198.64 73.0156ZM196.697 64.4902L199.167 71.873L199.589 73.5869L198.42 74.1846L194.922 64.4902H196.697ZM206.427 61.2031L206.312 70.3877H204.845L204.722 61.2031H206.427ZM204.669 73.1826C204.669 72.9189 204.748 72.6963 204.906 72.5146C205.07 72.333 205.311 72.2422 205.627 72.2422C205.938 72.2422 206.175 72.333 206.339 72.5146C206.509 72.6963 206.594 72.9189 206.594 73.1826C206.594 73.4346 206.509 73.6514 206.339 73.833C206.175 74.0146 205.938 74.1055 205.627 74.1055C205.311 74.1055 205.07 74.0146 204.906 73.833C204.748 73.6514 204.669 73.4346 204.669 73.1826Z" fill="black"/>
<path d="M13.887 3.37449H3.82996V19.6708H13.088V23.1002H3.82996V42.9358H0V0H13.887V3.37449ZM37.3903 39.8904C37.3903 40.7867 37.0964 41.5183 36.5087 42.0853C35.9392 42.6524 35.2045 42.9358 34.3043 42.9358H22.2358C21.3358 42.9358 20.6009 42.6524 20.0316 42.0853C19.4621 41.5183 19.1773 40.7867 19.1773 39.8904V3.04528C19.1773 2.14906 19.4621 1.41746 20.0316 0.850467C20.6009 0.283496 21.3358 0 22.2358 0H34.3043C35.2045 0 35.9392 0.283496 36.5087 0.850467C37.0964 1.41746 37.3903 2.14906 37.3903 3.04528V39.8904ZM33.5603 39.5612V3.37449H23.0073V39.5612H33.5603ZM62.5192 39.8904C62.5192 40.7867 62.2253 41.5183 61.6376 42.0853C61.0681 42.6524 60.3334 42.9358 59.4332 42.9358H47.3647C46.4647 42.9358 45.7298 42.6524 45.1605 42.0853C44.591 41.5183 44.3061 40.7867 44.3061 39.8904V3.04528C44.3061 2.14906 44.591 1.41746 45.1605 0.850467C45.7298 0.283496 46.4647 0 47.3647 0H59.4332C60.3334 0 61.0681 0.283496 61.6376 0.850467C62.2253 1.41746 62.5192 2.14906 62.5192 3.04528V39.8904ZM58.6892 39.5612V3.37449H48.1362V39.5612H58.6892ZM87.2073 35.1716C87.2073 37.4396 86.4541 39.3052 84.9478 40.7683C83.4599 42.2132 81.5772 42.9358 79.2994 42.9358H69.4353V0H79.2994C81.5955 0 83.4874 0.731599 84.9754 2.19479C86.4633 3.6397 87.2073 5.49613 87.2073 7.7641V35.1716ZM83.3773 34.7875V8.09332C83.3773 6.68498 82.9272 5.55102 82.0273 4.69138C81.1454 3.81345 79.9974 3.37449 78.583 3.37449H73.265V39.5612H78.3625C79.8504 39.5612 81.0537 39.1407 81.9722 38.2992C82.9089 37.4396 83.3773 36.2691 83.3773 34.7875ZM121.842 39.8904C121.842 40.7867 121.557 41.5183 120.988 42.0853C120.437 42.6524 119.711 42.9358 118.811 42.9358H107.955C107.055 42.9358 106.311 42.6524 105.723 42.0853C105.154 41.5183 104.869 40.7867 104.869 39.8904V28.9987H108.699V39.5612H118.012V29.328L106.109 15.0068C105.282 14.0193 104.869 12.9311 104.869 11.7422V3.04528C104.869 2.14906 105.154 1.41746 105.723 0.850467C106.311 0.283496 107.055 0 107.955 0H118.811C119.711 0 120.437 0.283496 120.988 0.850467C121.557 1.41746 121.842 2.14906 121.842 3.04528V13.0315H118.012V3.37449H108.699V12.4281L120.657 26.7492C121.447 27.7001 121.842 28.7702 121.842 29.9591V39.8904ZM142.783 42.9358H128.62V0H142.618V3.37449H132.45V19.3966H141.708V22.8258H132.45V39.5612H142.783V42.9358ZM167.14 42.9358H163.118L155.099 19.9452L155.623 19.177H162.456V3.37449H152.62V42.9358H148.79V0H163.228C164.128 0 164.863 0.283496 165.432 0.850467C166.001 1.41746 166.286 2.14906 166.286 3.04528V19.3418C166.286 21.4083 164.89 22.4417 162.098 22.4417C161.822 22.4417 161.418 22.4327 160.886 22.4143C160.353 22.3779 159.967 22.3595 159.728 22.3595C162.208 29.1999 164.679 36.0587 167.14 42.9358ZM189.707 0L182.24 43.0454H178.63L171.163 0H174.966L180.311 34.1841C180.311 34.1841 180.366 35.1168 180.476 36.9824C180.495 36.3421 180.559 35.4094 180.669 34.1841L186.015 0H189.707ZM198.965 42.9358H195.135V0H198.965V42.9358ZM223.432 39.8904C223.432 40.7867 223.138 41.5183 222.551 42.0853C221.962 42.6524 221.219 42.9358 220.319 42.9358H209.215C208.315 42.9358 207.58 42.6524 207.011 42.0853C206.441 41.5183 206.156 40.7867 206.156 39.8904V3.04528C206.156 2.14906 206.441 1.41746 207.011 0.850467C207.58 0.283496 208.315 0 209.215 0H220.319C221.219 0 221.962 0.283496 222.551 0.850467C223.138 1.41746 223.432 2.14906 223.432 3.04528V13.0315H219.575V3.37449H209.986V39.5612H219.575V28.9987H223.432V39.8904ZM244.29 42.9358H230.129V0H244.126V3.37449H233.957V19.3966H243.216V22.8258H233.957V39.5612H244.29V42.9358Z" fill="black"/>
</svg>
